# xmcd
# 
# Track frame offsets:
#     150
#     22545
#     46498
#     75118
#     93790
#     119228
#     144233
#     170350
#     191295
#     215443
# 
# Disc length: 3207
# 
# Revision: 2
# Processed by: cddbd v1.5.2PL0 Copyright (c) Steve Scherf et al.
# Submitted via: fre:ac v1.0.31
# 
DISCID=700c850a
DTITLE=Various Artist - Ngăn Cách - Ngọc Lan - Tuấn Vũ - Gold Productions
DYEAR=1990
DGENRE=Pop
TTITLE0=Ngọc Lan - Tuấn Vũ - Ai Nói Yêu Em Đêm Nay - Trần Thiện Thanh
TTITLE1=Tuấn Vũ - Linh Hồn Tượng Đá - Mai Bích Dung
TTITLE2=Ngọc Lan - Tuấn Vũ - Ngăn Cách - Y Vân
TTITLE3=Ngọc Lan - Đừng Hỏi Vì Sao Em Buồn -  Bảo Thu
TTITLE4=Ngọc Lan - Tuấn Vũ - Sao Đành Xa Em - Margaret Phạm
TTITLE5=Tuan Vu - Áo Lụa Hà Đông - Ngô Thụy Miên - Thơ Nguyên Sa
TTITLE6=Ngọc Lan - Tuấn Vũ - Kiếp Đam Mê - Duy Quang
TTITLE7=Tuấn Vũ - Tình Bơ Vơ - Lam Phương
TTITLE8=Ngọc Lan - Mộng Sầu - Trầm Tử Thiêng
TTITLE9=Tuấn Vũ - Đêm Đông - Nguyễn Văn Thương - Kim Minh
EXTD=
EXTT0=
EXTT1=
EXTT2=
EXTT3=
EXTT4=
EXTT5=
EXTT6=
EXTT7=
EXTT8=
EXTT9=
PLAYORDER=
